<?xml version="1.0" encoding="iso-8859-1"?>
<!-- Generator: Adobe Illustrator 19.0.0, SVG Export Plug-In . SVG Version: 6.00 Build 0)  -->
<svg version="1.1" id="Layer_1" xmlns="http://www.w3.org/2000/svg" xmlns:xlink="http://www.w3.org/1999/xlink" x="0px" y="0px"
	 viewBox="0 0 512 512" style="enable-background:new 0 0 512 512;" xml:space="preserve">
<circle style="fill:#F23E6D;" cx="256" cy="255.88" r="32.681"/>
<g>
	<path style="fill:#3E0412;" d="M434.175,180.856c-9.641-3.708-19.927-7.073-30.742-10.093c2.792-10.876,5.021-21.467,6.631-31.671
		c8.376-53.114-0.88-90.372-26.063-104.912c-7.321-4.227-15.734-6.371-25.005-6.371c-29.284,0-66.288,21.749-103.618,58.478
		c-8.155-8.009-16.347-15.365-24.513-21.969c-41.809-33.812-78.706-44.425-103.887-29.886
		c-16.184,9.343-26.026,28.425-28.461,55.178c-0.41,4.494,2.902,8.468,7.396,8.876c4.508,0.416,8.467-2.902,8.876-7.396
		c1.349-14.809,5.974-34.204,20.358-42.508c18.639-10.764,49.783-0.398,85.443,28.439c7.781,6.292,15.593,13.309,23.379,20.952
		c-15.657,16.66-31.239,35.833-46.2,57.025c-26.319,2.396-51.387,6.414-74.394,11.926c-4.028-15.661-6.795-30.603-8.16-44.475
		c-0.441-4.49-4.422-7.772-8.931-7.33c-4.49,0.441-7.773,4.44-7.33,8.931c1.444,14.678,4.366,30.465,8.624,46.987
		c-10.454,2.948-20.404,6.222-29.752,9.817C27.638,200.158,0,226.804,0,255.882s27.638,55.724,77.825,75.027
		c9.641,3.708,19.927,7.073,30.742,10.093c-2.792,10.876-5.021,21.467-6.631,31.671c-8.376,53.114,0.88,90.372,26.063,104.912
		c7.321,4.227,15.734,6.371,25.005,6.371c28.948,0,65.439-21.26,102.332-57.225c7.903,7.719,15.839,14.825,23.751,21.223
		c29.588,23.929,56.711,36.239,78.967,36.238c9.192-0.001,17.559-2.102,24.92-6.352c25.183-14.54,34.439-51.798,26.063-104.912
		c-1.609-10.203-3.838-20.793-6.63-31.668c16.819-4.632,32.289-10.088,45.991-16.297c4.11-1.863,5.932-6.704,4.069-10.814
		c-1.863-4.11-6.705-5.933-10.814-4.069c-12.976,5.88-27.645,11.057-43.62,15.46c-6.605-22.072-15.4-45.113-26.119-68.421
		c11.2-24.099,20.355-47.936,27.172-70.739c60.639,16.979,96.573,43.795,96.573,69.502c0,16.609-14.484,30.314-26.635,38.884
		c-3.688,2.601-4.568,7.698-1.967,11.386c2.601,3.689,7.699,4.568,11.386,1.967C500.397,292.634,512,274.57,512,255.882
		C512,226.804,484.362,200.158,434.175,180.856z M358.995,44.151c6.366,0,12.031,1.406,16.835,4.181
		c18.641,10.763,25.236,42.916,18.091,88.215c-1.531,9.703-3.649,19.782-6.306,30.142c-23.102-5.477-48.258-9.456-74.656-11.803
		c-14.811-20.962-30.356-40.131-46.162-56.922c2.892-2.852,5.787-5.619,8.676-8.281C307.338,60.32,336.999,44.151,358.995,44.151z
		 M255.401,109.678c12.328,13.14,24.511,27.797,36.301,43.686c-11.731-0.639-23.652-0.971-35.702-0.971
		c-12.452,0-24.77,0.35-36.88,1.032C230.893,137.564,243.092,122.846,255.401,109.678z M255.343,403.432
		c-12.765-13.53-25.378-28.695-37.568-45.171c12.543,0.734,25.31,1.111,38.225,1.111c12.439,0,24.763-0.363,36.898-1.056
		C280.719,374.726,268.085,389.919,255.343,403.432z M256,343.031c-17.555,0-34.4-0.68-50.453-1.943
		c-9.017-13.155-17.739-26.994-26.043-41.378c-8.173-14.156-15.692-28.44-22.503-42.654c7.07-14.882,14.932-29.862,23.526-44.748
		c8.323-14.414,17.157-28.392,26.337-41.73c15.658-1.197,32.059-1.844,49.136-1.844c16.638,0,32.633,0.614,47.925,1.753
		c9.188,13.363,18.073,27.436,26.525,42.074c8.551,14.812,16.377,29.717,23.421,44.525c-6.775,14.099-14.261,28.277-22.397,42.37
		c-8.306,14.387-17.125,28.34-26.286,41.656C289.157,342.373,272.692,343.031,256,343.031z M184.522,339.05
		c-20.102-2.323-38.762-5.587-55.781-9.597c5.168-17.2,11.719-35.034,19.531-53.15c5.336,10.554,11.033,21.104,17.08,31.577
		C171.527,318.575,177.933,328.982,184.522,339.05z M185.818,172.564c-6.657,10.151-13.157,20.688-19.442,31.574
		c-6.463,11.194-12.527,22.452-18.167,33.692c-8.217-18.866-15.096-37.448-20.467-55.284
		C145.393,178.342,164.826,174.938,185.818,172.564z M16.34,255.882c0-25.569,35.55-52.236,95.599-69.229
		c6.792,22.661,15.906,46.429,27.022,70.424c-10.69,23.271-19.461,46.273-26.05,68.308C52.274,308.406,16.34,281.59,16.34,255.882z
		 M153.005,467.614c-6.366,0-12.031-1.406-16.835-4.181c-18.641-10.763-25.236-42.917-18.091-88.215
		c1.531-9.703,3.649-19.782,6.306-30.142c22.352,5.3,46.625,9.195,72.086,11.568c15.198,21.577,31.175,41.268,47.42,58.442
		c-2.455,2.398-4.912,4.737-7.364,6.997C204.662,451.446,175.001,467.614,153.005,467.614z M392.898,375.471
		c7.145,45.299,0.55,77.453-18.091,88.215c-18.642,10.762-49.783,0.397-85.443-28.439c-7.509-6.072-15.048-12.819-22.563-20.152
		c16.08-16.97,32.095-36.606,47.456-58.367c25.526-2.343,49.917-6.206,72.322-11.448
		C389.242,355.658,391.365,365.753,392.898,375.471z M382.189,329.552c-17.5,4.067-36.288,7.266-55.927,9.526
		c6.629-10.113,13.102-20.609,19.361-31.451c6.01-10.41,11.67-20.873,16.971-31.327
		C370.433,294.449,377.005,312.318,382.189,329.552z M362.67,237.887c-5.612-11.176-11.643-22.367-18.069-33.497
		c-6.338-10.979-12.919-21.654-19.692-31.971c21.085,2.338,40.607,5.712,58.351,9.892
		C377.861,200.279,370.947,218.94,362.67,237.887z"/>
	<path style="fill:#3E0412;" d="M256,215.031c-22.526,0-40.851,18.325-40.851,40.851s18.325,40.851,40.851,40.851
		c22.526,0,40.851-18.325,40.851-40.851S278.526,215.031,256,215.031z M256,280.393c-13.515,0-24.511-10.996-24.511-24.511
		c0-13.515,10.996-24.511,24.511-24.511c13.515,0,24.511,10.996,24.511,24.511C280.511,269.397,269.515,280.393,256,280.393z"/>
</g>
<g>
</g>
<g>
</g>
<g>
</g>
<g>
</g>
<g>
</g>
<g>
</g>
<g>
</g>
<g>
</g>
<g>
</g>
<g>
</g>
<g>
</g>
<g>
</g>
<g>
</g>
<g>
</g>
<g>
</g>
</svg>
